<svg width="18" height="16" viewBox="0 0 18 16" fill="none" xmlns="http://www.w3.org/2000/svg">
<path d="M9 15C8.77222 15 8.55261 14.9188 8.38147 14.7714C7.73511 14.2156 7.11194 13.6932 6.56213 13.2324L6.55933 13.23C4.94739 11.879 3.55542 10.7123 2.58691 9.56301C1.50427 8.27817 1 7.05996 1 5.72914C1 4.43613 1.45081 3.24325 2.26929 2.37008C3.09753 1.48659 4.23401 1 5.46973 1C6.39331 1 7.23914 1.28717 7.98364 1.85348C8.35938 2.13933 8.69995 2.48918 9 2.89725C9.30017 2.48918 9.64062 2.13933 10.0165 1.85348C10.761 1.28717 11.6068 1 12.5304 1C13.766 1 14.9026 1.48659 15.7308 2.37008C16.5493 3.24325 17 4.43613 17 5.72914C17 7.05996 16.4958 8.27817 15.4132 9.56289C14.4447 10.7123 13.0529 11.8789 11.4412 13.2298C10.8904 13.6913 10.2662 14.2145 9.61841 14.7717C9.44739 14.9188 9.22766 15 9 15ZM5.46973 1.92179C4.4989 1.92179 3.60706 2.30285 2.95825 2.99485C2.2998 3.6973 1.93713 4.66832 1.93713 5.72914C1.93713 6.84842 2.36011 7.84945 3.30847 8.97486C4.2251 10.0627 5.5885 11.2054 7.16711 12.5285L7.17004 12.5309C7.72192 12.9935 8.34753 13.5179 8.99866 14.0778C9.65369 13.5168 10.2803 12.9916 10.8333 12.5283C12.4117 11.2051 13.775 10.0627 14.6917 8.97486C15.6399 7.84945 16.0629 6.84842 16.0629 5.72914C16.0629 4.66832 15.7002 3.6973 15.0417 2.99485C14.3931 2.30285 13.5011 1.92179 12.5304 1.92179C11.8192 1.92179 11.1663 2.14414 10.5897 2.58258C10.0759 2.97348 9.71802 3.46764 9.50818 3.8134C9.40027 3.9912 9.21033 4.09733 9 4.09733C8.78967 4.09733 8.59973 3.9912 8.49182 3.8134C8.2821 3.46764 7.92419 2.97348 7.41028 2.58258C6.83374 2.14414 6.18079 1.92179 5.46973 1.92179Z" fill="#AB1860" stroke="#AB1860"/>
</svg>
